<svg width="76" height="78" viewBox="0 0 76 78" fill="none" xmlns="http://www.w3.org/2000/svg">
<path d="M0 4C0 1.79086 1.79086 0 4 0H72C74.2091 0 76 1.79086 76 4V74C76 76.2091 74.2091 78 72 78H4C1.79086 78 0 76.2091 0 74V4Z" fill="url(#paint0_linear_1659_19245)"/>
<path d="M11.095 11.47C11.355 11.47 11.5833 11.4367 11.78 11.37C11.98 11.3033 12.145 11.21 12.275 11.09C12.4083 10.9667 12.5083 10.8183 12.575 10.645C12.6417 10.4717 12.675 10.2783 12.675 10.065C12.675 9.855 12.6417 9.66667 12.575 9.5C12.5117 9.33333 12.415 9.19167 12.285 9.075C12.155 8.95833 11.99 8.87 11.79 8.81C11.5933 8.74667 11.3617 8.715 11.095 8.715H10.025V11.47H11.095ZM11.095 7.8C11.565 7.8 11.9717 7.855 12.315 7.965C12.6617 8.075 12.9467 8.23 13.17 8.43C13.3967 8.62667 13.565 8.865 13.675 9.145C13.785 9.42167 13.84 9.72833 13.84 10.065C13.84 10.4083 13.7817 10.7233 13.665 11.01C13.5483 11.2933 13.375 11.5383 13.145 11.745C12.915 11.9483 12.6283 12.1083 12.285 12.225C11.945 12.3383 11.5483 12.395 11.095 12.395H10.025V15H8.855V7.8H11.095ZM17.3273 12.77C16.9439 12.7833 16.6206 12.815 16.3573 12.865C16.0939 12.9117 15.8806 12.9733 15.7173 13.05C15.5539 13.1233 15.4356 13.2117 15.3623 13.315C15.2923 13.4183 15.2573 13.5317 15.2573 13.655C15.2573 13.775 15.2756 13.8783 15.3123 13.965C15.3523 14.0483 15.4056 14.1183 15.4723 14.175C15.5423 14.2283 15.6223 14.2683 15.7123 14.295C15.8056 14.3183 15.9073 14.33 16.0173 14.33C16.2973 14.33 16.5373 14.2783 16.7373 14.175C16.9406 14.0683 17.1373 13.915 17.3273 13.715V12.77ZM14.4773 10.61C15.0539 10.0733 15.7406 9.805 16.5373 9.805C16.8306 9.805 17.0906 9.85333 17.3173 9.95C17.5473 10.0433 17.7389 10.1767 17.8923 10.35C18.0489 10.5233 18.1673 10.73 18.2473 10.97C18.3306 11.2067 18.3723 11.47 18.3723 11.76V15H17.8923C17.7889 15 17.7106 14.985 17.6573 14.955C17.6039 14.9217 17.5589 14.8567 17.5223 14.76L17.4173 14.345C17.2873 14.4617 17.1589 14.5667 17.0323 14.66C16.9056 14.75 16.7739 14.8267 16.6373 14.89C16.5039 14.9533 16.3589 15 16.2023 15.03C16.0489 15.0633 15.8789 15.08 15.6923 15.08C15.4856 15.08 15.2923 15.0517 15.1123 14.995C14.9356 14.9383 14.7823 14.8533 14.6523 14.74C14.5223 14.6233 14.4189 14.48 14.3423 14.31C14.2689 14.14 14.2323 13.94 14.2323 13.71C14.2323 13.5133 14.2839 13.3217 14.3873 13.135C14.4939 12.9483 14.6673 12.7817 14.9073 12.635C15.1506 12.485 15.4689 12.3617 15.8623 12.265C16.2589 12.1683 16.7473 12.1133 17.3273 12.1V11.76C17.3273 11.3933 17.2489 11.12 17.0923 10.94C16.9356 10.76 16.7056 10.67 16.4023 10.67C16.1956 10.67 16.0223 10.6967 15.8823 10.75C15.7423 10.8 15.6206 10.855 15.5173 10.915C15.4139 10.975 15.3223 11.0317 15.2423 11.085C15.1623 11.135 15.0773 11.16 14.9873 11.16C14.9139 11.16 14.8506 11.1417 14.7973 11.105C14.7473 11.065 14.7056 11.0167 14.6723 10.96L14.4773 10.61ZM23.2366 10.9C23.2032 10.9433 23.1716 10.9767 23.1416 11C23.1116 11.0233 23.0682 11.035 23.0116 11.035C22.9549 11.035 22.8949 11.015 22.8316 10.975C22.7716 10.935 22.6982 10.8917 22.6116 10.845C22.5282 10.795 22.4266 10.75 22.3066 10.71C22.1866 10.67 22.0366 10.65 21.8566 10.65C21.6232 10.65 21.4182 10.6917 21.2416 10.775C21.0682 10.8583 20.9216 10.9783 20.8016 11.135C20.6849 11.2883 20.5966 11.4767 20.5366 11.7C20.4799 11.92 20.4516 12.1683 20.4516 12.445C20.4516 12.7317 20.4832 12.9867 20.5466 13.21C20.6099 13.4333 20.6999 13.6217 20.8166 13.775C20.9366 13.9283 21.0799 14.045 21.2466 14.125C21.4166 14.205 21.6066 14.245 21.8166 14.245C22.0232 14.245 22.1916 14.22 22.3216 14.17C22.4516 14.12 22.5599 14.065 22.6466 14.005C22.7332 13.945 22.8066 13.89 22.8666 13.84C22.9299 13.79 22.9966 13.765 23.0666 13.765C23.1532 13.765 23.2199 13.7983 23.2666 13.865L23.5716 14.26C23.4482 14.41 23.3116 14.5367 23.1616 14.64C23.0116 14.7433 22.8532 14.8283 22.6866 14.895C22.5199 14.9583 22.3466 15.0033 22.1666 15.03C21.9866 15.06 21.8049 15.075 21.6216 15.075C21.3049 15.075 21.0082 15.0167 20.7316 14.9C20.4582 14.78 20.2182 14.6083 20.0116 14.385C19.8082 14.1583 19.6466 13.8833 19.5266 13.56C19.4099 13.2333 19.3516 12.8617 19.3516 12.445C19.3516 12.0683 19.4049 11.72 19.5116 11.4C19.6182 11.0767 19.7732 10.7983 19.9766 10.565C20.1832 10.3317 20.4382 10.15 20.7416 10.02C21.0449 9.88667 21.3949 9.82 21.7916 9.82C22.1616 9.82 22.4866 9.88 22.7666 10C23.0499 10.12 23.3016 10.29 23.5216 10.51L23.2366 10.9ZM25.5113 7.6V11.89H25.7413C25.8146 11.89 25.8746 11.88 25.9213 11.86C25.9679 11.84 26.0163 11.7983 26.0663 11.735L27.4963 10.1C27.5463 10.0333 27.6013 9.98333 27.6613 9.95C27.7213 9.91667 27.7979 9.9 27.8913 9.9H28.8663L27.1463 11.84C27.0463 11.97 26.9363 12.0733 26.8163 12.15C26.8829 12.1967 26.9413 12.25 26.9913 12.31C27.0413 12.3667 27.0896 12.4317 27.1363 12.505L28.9713 15H28.0113C27.9246 15 27.8496 14.9867 27.7863 14.96C27.7263 14.93 27.6729 14.8767 27.6263 14.8L26.1513 12.8C26.1013 12.7233 26.0513 12.675 26.0013 12.655C25.9513 12.6317 25.8763 12.62 25.7763 12.62H25.5113V15H24.4363V7.6H25.5113ZM32.3859 12.77C32.0025 12.7833 31.6792 12.815 31.4159 12.865C31.1525 12.9117 30.9392 12.9733 30.7759 13.05C30.6125 13.1233 30.4942 13.2117 30.4209 13.315C30.3509 13.4183 30.3159 13.5317 30.3159 13.655C30.3159 13.775 30.3342 13.8783 30.3709 13.965C30.4109 14.0483 30.4642 14.1183 30.5309 14.175C30.6009 14.2283 30.6809 14.2683 30.7709 14.295C30.8642 14.3183 30.9659 14.33 31.0759 14.33C31.3559 14.33 31.5959 14.2783 31.7959 14.175C31.9992 14.0683 32.1959 13.915 32.3859 13.715V12.77ZM29.5359 10.61C30.1125 10.0733 30.7992 9.805 31.5959 9.805C31.8892 9.805 32.1492 9.85333 32.3759 9.95C32.6059 10.0433 32.7975 10.1767 32.9509 10.35C33.1075 10.5233 33.2259 10.73 33.3059 10.97C33.3892 11.2067 33.4309 11.47 33.4309 11.76V15H32.9509C32.8475 15 32.7692 14.985 32.7159 14.955C32.6625 14.9217 32.6175 14.8567 32.5809 14.76L32.4759 14.345C32.3459 14.4617 32.2175 14.5667 32.0909 14.66C31.9642 14.75 31.8325 14.8267 31.6959 14.89C31.5625 14.9533 31.4175 15 31.2609 15.03C31.1075 15.0633 30.9375 15.08 30.7509 15.08C30.5442 15.08 30.3509 15.0517 30.1709 14.995C29.9942 14.9383 29.8409 14.8533 29.7109 14.74C29.5809 14.6233 29.4775 14.48 29.4009 14.31C29.3275 14.14 29.2909 13.94 29.2909 13.71C29.2909 13.5133 29.3425 13.3217 29.4459 13.135C29.5525 12.9483 29.7259 12.7817 29.9659 12.635C30.2092 12.485 30.5275 12.3617 30.9209 12.265C31.3175 12.1683 31.8059 12.1133 32.3859 12.1V11.76C32.3859 11.3933 32.3075 11.12 32.1509 10.94C31.9942 10.76 31.7642 10.67 31.4609 10.67C31.2542 10.67 31.0809 10.6967 30.9409 10.75C30.8009 10.8 30.6792 10.855 30.5759 10.915C30.4725 10.975 30.3809 11.0317 30.3009 11.085C30.2209 11.135 30.1359 11.16 30.0459 11.16C29.9725 11.16 29.9092 11.1417 29.8559 11.105C29.8059 11.065 29.7642 11.0167 29.7309 10.96L29.5359 10.61ZM36.5102 12.405C36.8435 12.405 37.0935 12.32 37.2602 12.15C37.4268 11.98 37.5102 11.7583 37.5102 11.485C37.5102 11.205 37.4268 10.9833 37.2602 10.82C37.0935 10.6567 36.8435 10.575 36.5102 10.575C36.1802 10.575 35.9302 10.6567 35.7602 10.82C35.5935 10.9833 35.5102 11.205 35.5102 11.485C35.5102 11.6183 35.5318 11.7417 35.5752 11.855C35.6185 11.9683 35.6818 12.0667 35.7652 12.15C35.8485 12.23 35.9518 12.2933 36.0752 12.34C36.2018 12.3833 36.3468 12.405 36.5102 12.405ZM38.0052 15.25C38.0052 15.1367 37.9718 15.0467 37.9052 14.98C37.8418 14.91 37.7552 14.8567 37.6452 14.82C37.5352 14.78 37.4068 14.7517 37.2602 14.735C37.1135 14.715 36.9568 14.7017 36.7902 14.695C36.6268 14.685 36.4585 14.6767 36.2852 14.67C36.1152 14.66 35.9502 14.6433 35.7902 14.62C35.6302 14.7033 35.4985 14.8033 35.3952 14.92C35.2952 15.0367 35.2452 15.1717 35.2452 15.325C35.2452 15.425 35.2702 15.5183 35.3202 15.605C35.3735 15.6917 35.4535 15.7667 35.5602 15.83C35.6702 15.8933 35.8085 15.9433 35.9752 15.98C36.1452 16.0167 36.3485 16.035 36.5852 16.035C37.0585 16.035 37.4135 15.9617 37.6502 15.815C37.8868 15.6683 38.0052 15.48 38.0052 15.25ZM39.0852 10.085V10.485C39.0852 10.6183 39.0052 10.7 38.8452 10.73L38.3352 10.815C38.4218 11.0083 38.4652 11.2233 38.4652 11.46C38.4652 11.71 38.4152 11.9367 38.3152 12.14C38.2185 12.3433 38.0835 12.5167 37.9102 12.66C37.7368 12.8033 37.5302 12.9133 37.2902 12.99C37.0502 13.0667 36.7902 13.105 36.5102 13.105C36.4035 13.105 36.2985 13.1 36.1952 13.09C36.0952 13.0767 35.9968 13.06 35.9002 13.04C35.8035 13.0967 35.7318 13.1567 35.6852 13.22C35.6385 13.2833 35.6152 13.3483 35.6152 13.415C35.6152 13.525 35.6635 13.6067 35.7602 13.66C35.8568 13.7133 35.9835 13.7517 36.1402 13.775C36.3002 13.7983 36.4818 13.8133 36.6852 13.82C36.8885 13.8267 37.0952 13.8383 37.3052 13.855C37.5152 13.8717 37.7218 13.9 37.9252 13.94C38.1285 13.9767 38.3085 14.04 38.4652 14.13C38.6252 14.2167 38.7535 14.335 38.8502 14.485C38.9468 14.635 38.9952 14.83 38.9952 15.07C38.9952 15.29 38.9402 15.505 38.8302 15.715C38.7202 15.925 38.5602 16.1117 38.3502 16.275C38.1435 16.4383 37.8902 16.5683 37.5902 16.665C37.2902 16.765 36.9485 16.815 36.5652 16.815C36.1852 16.815 35.8535 16.7783 35.5702 16.705C35.2902 16.6317 35.0552 16.5317 34.8652 16.405C34.6785 16.2817 34.5385 16.1383 34.4452 15.975C34.3552 15.8117 34.3102 15.6417 34.3102 15.465C34.3102 15.225 34.3852 15.02 34.5352 14.85C34.6885 14.68 34.8952 14.5467 35.1552 14.45C35.0152 14.3833 34.9018 14.2917 34.8152 14.175C34.7318 14.0583 34.6902 13.905 34.6902 13.715C34.6902 13.565 34.7452 13.4083 34.8552 13.245C34.9652 13.0817 35.1302 12.9433 35.3502 12.83C35.0968 12.69 34.8968 12.505 34.7502 12.275C34.6035 12.0417 34.5302 11.77 34.5302 11.46C34.5302 11.2067 34.5785 10.9783 34.6752 10.775C34.7752 10.5717 34.9135 10.3983 35.0902 10.255C35.2668 10.1117 35.4752 10.0017 35.7152 9.925C35.9585 9.84833 36.2235 9.81 36.5102 9.81C36.9502 9.81 37.3335 9.90167 37.6602 10.085H39.0852ZM43.1914 11.875C43.1914 11.695 43.1647 11.5283 43.1114 11.375C43.0614 11.2183 42.9864 11.0833 42.8864 10.97C42.7864 10.8533 42.6614 10.7633 42.5114 10.7C42.3647 10.6333 42.1947 10.6 42.0014 10.6C41.6114 10.6 41.3047 10.7117 41.0814 10.935C40.8581 11.1583 40.7164 11.4717 40.6564 11.875H43.1914ZM40.6264 12.535C40.6397 12.825 40.6847 13.0767 40.7614 13.29C40.8381 13.5 40.9397 13.675 41.0664 13.815C41.1964 13.955 41.3497 14.06 41.5264 14.13C41.7064 14.1967 41.9064 14.23 42.1264 14.23C42.3364 14.23 42.5181 14.2067 42.6714 14.16C42.8247 14.11 42.9581 14.0567 43.0714 14C43.1847 13.94 43.2814 13.8867 43.3614 13.84C43.4414 13.79 43.5147 13.765 43.5814 13.765C43.6681 13.765 43.7347 13.7983 43.7814 13.865L44.0864 14.26C43.9597 14.41 43.8164 14.5367 43.6564 14.64C43.4964 14.7433 43.3264 14.8283 43.1464 14.895C42.9664 14.9583 42.7814 15.0033 42.5914 15.03C42.4014 15.06 42.2164 15.075 42.0364 15.075C41.6831 15.075 41.3547 15.0167 41.0514 14.9C40.7514 14.78 40.4897 14.605 40.2664 14.375C40.0464 14.145 39.8731 13.86 39.7464 13.52C39.6231 13.18 39.5614 12.7883 39.5614 12.345C39.5614 11.9917 39.6164 11.6617 39.7264 11.355C39.8397 11.0483 39.9997 10.7817 40.2064 10.555C40.4164 10.3283 40.6697 10.15 40.9664 10.02C41.2664 9.88667 41.6047 9.82 41.9814 9.82C42.2947 9.82 42.5847 9.87167 42.8514 9.975C43.1181 10.075 43.3481 10.2233 43.5414 10.42C43.7347 10.6167 43.8847 10.8583 43.9914 11.145C44.1014 11.4283 44.1564 11.7517 44.1564 12.115C44.1564 12.2817 44.1381 12.3933 44.1014 12.45C44.0647 12.5067 43.9981 12.535 43.9014 12.535H40.6264ZM48.2039 10.825C48.1772 10.8717 48.1472 10.905 48.1139 10.925C48.0806 10.945 48.0389 10.955 47.9889 10.955C47.9322 10.955 47.8706 10.9383 47.8039 10.905C47.7372 10.8683 47.6589 10.8283 47.5689 10.785C47.4789 10.7417 47.3722 10.7033 47.2489 10.67C47.1289 10.6333 46.9872 10.615 46.8239 10.615C46.6906 10.615 46.5689 10.6317 46.4589 10.665C46.3522 10.695 46.2606 10.74 46.1839 10.8C46.1106 10.8567 46.0539 10.925 46.0139 11.005C45.9739 11.0817 45.9539 11.165 45.9539 11.255C45.9539 11.375 45.9906 11.475 46.0639 11.555C46.1372 11.635 46.2339 11.705 46.3539 11.765C46.4739 11.8217 46.6106 11.8733 46.7639 11.92C46.9172 11.9667 47.0739 12.0167 47.2339 12.07C47.3939 12.1233 47.5506 12.185 47.7039 12.255C47.8572 12.325 47.9939 12.4117 48.1139 12.515C48.2339 12.615 48.3306 12.7383 48.4039 12.885C48.4772 13.0283 48.5139 13.2033 48.5139 13.41C48.5139 13.65 48.4706 13.8717 48.3839 14.075C48.2972 14.2783 48.1706 14.455 48.0039 14.605C47.8372 14.755 47.6289 14.8717 47.3789 14.955C47.1322 15.0383 46.8489 15.08 46.5289 15.08C46.3522 15.08 46.1806 15.0633 46.0139 15.03C45.8506 15 45.6939 14.9583 45.5439 14.905C45.3972 14.8483 45.2589 14.7817 45.1289 14.705C45.0022 14.6283 44.8889 14.545 44.7889 14.455L45.0389 14.045C45.0689 13.995 45.1056 13.9567 45.1489 13.93C45.1956 13.9 45.2522 13.885 45.3189 13.885C45.3889 13.885 45.4572 13.9083 45.5239 13.955C45.5939 13.9983 45.6739 14.0467 45.7639 14.1C45.8572 14.1533 45.9689 14.2033 46.0989 14.25C46.2289 14.2933 46.3906 14.315 46.5839 14.315C46.7439 14.315 46.8822 14.2967 46.9989 14.26C47.1156 14.22 47.2122 14.1667 47.2889 14.1C47.3656 14.0333 47.4222 13.9583 47.4589 13.875C47.4956 13.7883 47.5139 13.6967 47.5139 13.6C47.5139 13.47 47.4772 13.3633 47.4039 13.28C47.3306 13.1967 47.2322 13.125 47.1089 13.065C46.9889 13.005 46.8506 12.9517 46.6939 12.905C46.5406 12.8583 46.3839 12.8083 46.2239 12.755C46.0639 12.7017 45.9056 12.64 45.7489 12.57C45.5956 12.5 45.4572 12.4117 45.3339 12.305C45.2139 12.195 45.1172 12.0633 45.0439 11.91C44.9706 11.7533 44.9339 11.5633 44.9339 11.34C44.9339 11.1367 44.9739 10.9433 45.0539 10.76C45.1372 10.5767 45.2572 10.415 45.4139 10.275C45.5739 10.135 45.7689 10.025 45.9989 9.945C46.2322 9.86167 46.5006 9.82 46.8039 9.82C47.1472 9.82 47.4589 9.875 47.7389 9.985C48.0189 10.095 48.2539 10.245 48.4439 10.435L48.2039 10.825Z" fill="white"/>
<path d="M62 11L65 14L68 11" stroke="white" stroke-linecap="round" stroke-linejoin="round"/>
<defs>
<linearGradient id="paint0_linear_1659_19245" x1="38" y1="0" x2="38" y2="78" gradientUnits="userSpaceOnUse">
<stop stop-color="#4A4949" stop-opacity="0.68"/>
<stop offset="0.43" stop-color="#4D4D4D" stop-opacity="0"/>
</linearGradient>
</defs>
</svg>
